<svg xmlns="http://www.w3.org/2000/svg" xmlns:xlink="http://www.w3.org/1999/xlink" version="1.1" x="0px" y="0px" viewBox="0 0 64 80" enable-background="new 0 0 64 64" xml:space="preserve"><path d="M34.293,28.293c-1.265,1.264-3.321,1.264-4.586,0c-0.391-0.391-1.023-0.391-1.414,0s-0.391,1.023,0,1.414  c1.022,1.022,2.365,1.533,3.707,1.533s2.685-0.511,3.707-1.533c0.391-0.391,0.391-1.023,0-1.414S34.684,27.902,34.293,28.293z"/><path d="M34.707,20.707c0.713-0.713,1.873-0.713,2.586,0C37.488,20.902,37.744,21,38,21s0.512-0.098,0.707-0.293  c0.391-0.391,0.391-1.023,0-1.414c-1.492-1.493-3.922-1.493-5.414,0c-0.391,0.391-0.391,1.023,0,1.414S34.316,21.098,34.707,20.707z  "/><path d="M26.707,20.707c0.713-0.713,1.873-0.713,2.586,0C29.488,20.902,29.744,21,30,21s0.512-0.098,0.707-0.293  c0.391-0.391,0.391-1.023,0-1.414c-1.492-1.493-3.922-1.493-5.414,0c-0.391,0.391-0.391,1.023,0,1.414S26.316,21.098,26.707,20.707z  "/><circle cx="36" cy="23" r="1"/><circle cx="28" cy="23" r="1"/><path d="M29.764,25l-0.211,0.105C29.214,25.275,29,25.621,29,26s0.214,0.725,0.553,0.895l2,1C31.696,27.966,31.849,28,31.999,28  c0.367,0,0.72-0.202,0.896-0.553c0.247-0.494,0.047-1.095-0.447-1.342l-0.535-0.267C32.604,25.075,33,24.074,33,23  c0-0.552-0.448-1-1-1s-1,0.448-1,1C31,23.853,30.526,24.619,29.764,25z"/><path d="M51.349,58.272L50,52.876V51.5V47c0-2.688-0.907-5.231-2.5-7.298C48.964,39.107,50,37.674,50,36v-4c0-2.206-1.794-4-4-4  h-3.521C42.821,26.885,43,25.714,43,24.515v-0.616c2.279-0.465,4-2.484,4-4.899c0-0.537-0.153-1.034-0.401-1.471  C47.438,16.997,48,16.065,48,15c0-1.654-1.346-3-3-3h-1.256l-1.717-5.724C41.26,3.718,38.95,2,36.28,2h-8.56  c-2.67,0-4.98,1.718-5.747,4.276L20.256,12H19c-1.654,0-3,1.346-3,3c0,1.065,0.562,1.997,1.401,2.529C17.153,17.966,17,18.463,17,19  c0,2.414,1.721,4.434,4,4.899v0.616c0,1.199,0.179,2.371,0.521,3.485H18c-2.206,0-4,1.794-4,4v4c0,1.674,1.036,3.107,2.5,3.702  C14.907,41.769,14,44.312,14,47v4.5v1.376l-1.349,5.396c-0.226,0.902-0.026,1.841,0.546,2.574C13.77,61.58,14.631,62,15.562,62  h32.877c0.93,0,1.792-0.42,2.364-1.153C51.375,60.113,51.575,59.175,51.349,58.272z M44,55.5v-5h3c0.551,0,1,0.449,1,1V53v1.5  c0,0.551-0.449,1-1,1H44z M28,48.677l8-3.2V60h-8V48.677z M17,55.5c-0.551,0-1-0.449-1-1V53v-1.5c0-0.551,0.449-1,1-1h3v5H17z   M23,45.969l-2-0.5V36h2V45.969z M23,18h18v6.515c0,2.625-1.022,5.093-2.878,6.95C36.486,33.1,34.312,34,32,34  s-4.486-0.9-6.122-2.536C24.022,29.608,23,27.14,23,24.515V18z M29,35.569C29.963,35.85,30.969,36,32,36s2.037-0.15,3-0.431V37  c0,1.654-1.346,3-3,3s-3-1.346-3-3V35.569z M43,44.469l-2-0.5V36h2V44.469z M46,30c1.103,0,2,0.897,2,2v4c0,1.103-0.897,2-2,2  h-0.087c-0.289-0.253-0.598-0.485-0.913-0.712V36c0-1.103-0.897-2-2-2h-2c-0.767,0-1.427,0.439-1.762,1.074  C38.82,35.029,38.408,35,38,35h-1v-0.241c0.922-0.491,1.776-1.121,2.536-1.881c0.86-0.86,1.568-1.831,2.117-2.878H46z M43,21.829V18  h1c0.551,0,1,0.449,1,1C45,20.304,44.164,21.416,43,21.829z M19,14h26c0.551,0,1,0.449,1,1s-0.449,1-1,1H19c-0.551,0-1-0.449-1-1  S18.449,14,19,14z M19,19c0-0.551,0.449-1,1-1h1v3.829C19.836,21.416,19,20.304,19,19z M16,32c0-1.103,0.897-2,2-2h4.347  c0.55,1.047,1.257,2.018,2.117,2.878c0.759,0.76,1.614,1.39,2.536,1.881V35h-1c-0.408,0-0.82,0.029-1.238,0.074  C24.427,34.439,23.767,34,23,34h-2c-1.103,0-2,0.897-2,2v1.288c-0.315,0.227-0.624,0.459-0.913,0.712H18c-1.103,0-2-0.897-2-2V32z   M20,57.5c1.103,0,2-0.897,2-2v-5c0-1.103-0.897-2-2-2v-1.219l6,1.5V60h-6V57.5z M44,60h-6V45.281l6,1.5V48.5c-1.103,0-2,0.897-2,2  v5c0,1.103,0.897,2,2,2V60z"/><text x="0" y="79" fill="#000000" font-size="5px" font-weight="bold" font-family="'Helvetica Neue', Helvetica, Arial-Unicode, Arial, Sans-serif">Created by Tippawan Sookruay</text><text x="0" y="84" fill="#000000" font-size="5px" font-weight="bold" font-family="'Helvetica Neue', Helvetica, Arial-Unicode, Arial, Sans-serif">from the Noun Project</text></svg>